<svg id="_01-26-6" data-name="01-26-6" xmlns="http://www.w3.org/2000/svg" width="27.896" height="27.896" viewBox="0 0 27.896 27.896">
  <path id="Path_26" data-name="Path 26" d="M145.087,140.5a6.887,6.887,0,1,0,6.887,6.887A6.887,6.887,0,0,0,145.087,140.5Zm0,11.3a4.413,4.413,0,1,1,4.413-4.413A4.411,4.411,0,0,1,145.087,151.8Z" transform="translate(-131.093 -133.259)" fill="#fff"/>
  <path id="Path_27" data-name="Path 27" d="M355.838,104.2h0a1.637,1.637,0,1,0,1.638,1.637A1.639,1.639,0,0,0,355.838,104.2Z" transform="translate(-334.55 -99.067)" fill="#fff"/>
  <path id="Path_28" data-name="Path 28" d="M35.293,15.8H24.2a8.4,8.4,0,0,0-8.4,8.4h0V35.293a8.4,8.4,0,0,0,8.4,8.4H35.293a8.4,8.4,0,0,0,8.4-8.4h0V24.2A8.4,8.4,0,0,0,35.293,15.8Zm5.772,19.493a5.772,5.772,0,0,1-5.772,5.772H24.2a5.772,5.772,0,0,1-5.772-5.772V24.2A5.772,5.772,0,0,1,24.2,18.43H35.293A5.772,5.772,0,0,1,41.065,24.2Z" transform="translate(-15.8 -15.8)" fill="#fff"/>
</svg>
