<svg xmlns="http://www.w3.org/2000/svg" width="28.521" height="23.246" viewBox="0 0 28.521 23.246">
  <path id="cib-twitter" d="M28.521,5.772a10.582,10.582,0,0,1-3.4.894,5.778,5.778,0,0,0,2.593-3.219,13.6,13.6,0,0,1-3.755,1.431A5.469,5.469,0,0,0,19.759,3a5.9,5.9,0,0,0-5.9,5.9,6.9,6.9,0,0,0,.179,1.341A16.664,16.664,0,0,1,1.967,4.073a5.627,5.627,0,0,0-.8,2.95,6.048,6.048,0,0,0,2.593,4.917,5.462,5.462,0,0,1-2.682-.715v.089a5.85,5.85,0,0,0,4.739,5.722,7.874,7.874,0,0,1-1.52.179,4.353,4.353,0,0,1-1.073-.089,5.972,5.972,0,0,0,5.454,4.113,11.48,11.48,0,0,1-7.242,2.5A8.181,8.181,0,0,1,0,23.653a17.189,17.189,0,0,0,9.03,2.593c10.818,0,16.719-8.941,16.719-16.719V8.811a11.259,11.259,0,0,0,2.772-3.04Z" transform="translate(0 -3)" fill="#fff"/>
</svg>
